<svg width="484" height="153" viewBox="0 0 484 153" fill="none" xmlns="http://www.w3.org/2000/svg">
<path d="M160.505 48.0812C158.642 48.0812 157.089 48.9414 155.832 50.6469C154.575 52.3525 153.954 54.7551 153.954 57.825C153.954 60.9098 154.56 63.2679 155.758 64.9289C156.956 66.5751 158.538 67.4056 160.49 67.4056C162.442 67.4056 164.025 66.5751 165.252 64.8993C166.465 63.2382 167.086 60.8505 167.086 57.7509C167.086 54.6512 166.45 52.2635 165.208 50.6024C163.907 48.9266 162.354 48.0812 160.505 48.0812ZM160.476 78.7363C155.048 78.7363 150.611 76.9566 147.195 73.3824C143.779 69.8082 142.063 64.6026 142.063 57.7657C142.063 50.9287 143.794 45.738 147.254 42.2083C150.715 38.6786 155.181 36.9137 160.653 36.9137C166.125 36.9137 170.547 38.6489 173.904 42.1193C177.261 45.5897 178.947 50.8397 178.947 57.8843C178.947 64.9289 177.232 70.1642 173.786 73.5901C170.34 77.0308 165.903 78.7363 160.476 78.7363Z" fill="black"/>
<path d="M192.464 52.1597V59.9755H193.1C194.254 59.9755 195.215 59.6195 196.014 58.8928C196.797 58.1661 197.197 57.1428 197.197 55.8229C197.197 54.5029 196.93 53.5686 196.383 53.005C195.836 52.4415 194.875 52.1597 193.499 52.1597H192.464ZM187.436 78.2617C184.449 78.2617 182.955 77.9355 182.955 77.2681V45.2337C182.955 44.1066 183.458 43.5579 184.478 43.5579H193.159C198.025 43.5579 201.53 44.5663 203.689 46.5685C205.848 48.5855 206.913 51.4923 206.913 55.3186C206.913 58.4776 205.893 61.3844 203.852 64.0242C202.831 65.3442 201.338 66.3972 199.371 67.1832C197.404 67.9692 195.097 68.3696 192.464 68.3696V77.2236C192.464 77.624 191.843 77.891 190.616 78.0393C189.388 78.1876 188.323 78.2617 187.436 78.2617Z" fill="black"/>
<path d="M227.278 57.291C227.899 57.291 228.209 58.4478 228.209 60.7466C228.209 61.4436 228.135 62.2593 227.988 63.1937C227.84 64.128 227.573 64.6026 227.174 64.6026H220.918V69.5412H229.984C230.546 69.5412 230.916 70.2679 231.123 71.7213C231.226 72.3442 231.271 73.0116 231.271 73.7235C231.271 74.4353 231.167 75.3549 230.975 76.4672C230.783 77.5943 230.442 78.143 229.984 78.143H213.125C211.882 78.143 211.246 77.6388 211.246 76.6155V44.8332C211.246 43.9731 211.631 43.543 212.385 43.543H230.043C230.738 43.543 231.078 44.9964 231.078 47.918C231.078 50.8397 230.738 52.2931 230.043 52.2931H220.918V57.291H227.278Z" fill="black"/>
<path d="M262.579 77.0752C262.579 77.7723 261.026 78.1134 257.95 78.1134C254.859 78.1134 253.188 77.8612 252.922 77.3718L244.684 61.9479V77.3273C244.684 77.9206 243.161 78.2172 240.129 78.2172C237.083 78.2172 235.574 77.9206 235.574 77.3273V44.2548C235.574 43.7654 236.876 43.5133 239.464 43.5133C240.484 43.5133 241.667 43.6023 243.043 43.7803C244.403 43.9582 245.231 44.2993 245.527 44.7887L253.41 60.0199V44.4921C253.41 43.8692 254.933 43.5578 257.994 43.5578C261.056 43.5578 262.579 43.8692 262.579 44.4921V77.0752V77.0752Z" fill="black"/>
<path d="M308.558 78.2172C305.112 78.2172 303.396 77.8316 303.396 77.0604L302.184 53.7317L295.1 77.3422C294.952 77.8019 293.636 78.0392 291.151 78.0392C288.681 78.0392 287.395 77.8316 287.321 77.4015L280.015 53.4944L279.202 76.7045C279.157 77.2829 278.433 77.6833 276.998 77.8909C275.564 78.0985 274.38 78.2172 273.434 78.2172C272.487 78.2172 271.571 78.1579 270.683 78.0392C268.82 77.7723 267.918 77.2829 267.962 76.5858L269.293 38.7675C269.293 37.8332 271.644 37.3734 276.377 37.3734C277.767 37.3734 279.468 37.4772 281.479 37.6997C283.49 37.9073 284.614 38.3374 284.836 38.9455L291.329 57.2762L297.008 38.901C297.363 37.8925 300.025 37.3882 305.008 37.3882C306.443 37.3882 308.144 37.4921 310.14 37.7145C312.137 37.9221 313.128 38.3077 313.128 38.8417L314.814 77.0011C314.814 77.4312 314.059 77.7426 312.551 77.9354C311.042 78.1282 309.711 78.2172 308.558 78.2172Z" fill="black"/>
<path d="M337.293 45.1744C337.722 44.0176 339.822 43.4392 343.608 43.4392C344.554 43.4392 345.693 43.4985 346.98 43.632C348.281 43.7655 348.873 43.9286 348.784 44.1214L338.52 64.8103V76.8825C338.52 77.446 337.618 77.8316 335.814 78.0689C334.897 78.2024 333.995 78.2617 333.108 78.2617C332.22 78.2617 331.333 78.2172 330.446 78.1134C328.641 77.8761 327.739 77.4757 327.739 76.8825V65.1069L317.135 44.2401C317.002 44.0473 317.683 43.8545 319.162 43.6765C320.64 43.4985 321.883 43.4095 322.903 43.4095C326.941 43.4095 329.159 44.0028 329.558 45.1892L333.152 55.2741L337.293 45.1744Z" fill="black"/>
<path d="M372.343 65.9967L372.461 58.092C372.461 57.5432 373.023 57.1873 374.147 57.0093C375.271 56.8313 376.188 56.7424 376.928 56.7424L379.19 56.9203C380.654 57.1576 381.394 57.5581 381.394 58.1365L381.157 76.3486C380.388 76.8973 378.821 77.4312 376.484 77.9503C374.147 78.4694 371.47 78.7363 368.454 78.7363C362.848 78.7363 358.323 76.9121 354.877 73.2638C351.431 69.6154 349.716 64.2615 349.716 57.2021C349.716 51.1957 351.402 46.3015 354.759 42.5494C358.131 38.7824 362.789 36.9137 368.735 36.9137C371.441 36.9137 373.881 37.1807 376.07 37.6997C378.259 38.2188 379.752 38.9307 380.566 39.8205C380.61 40.132 380.625 40.7104 380.625 41.5705C380.625 42.4307 380.329 43.632 379.752 45.2041C379.176 46.7761 378.51 47.9477 377.785 48.7189C377.046 49.4901 376.514 49.8757 376.188 49.8757C375.863 49.8757 375.508 49.7274 375.138 49.4457C374.768 49.149 374.044 48.8376 372.964 48.5113C371.885 48.185 370.835 48.0219 369.829 48.0219C367.433 48.0219 365.481 48.7931 364.002 50.3503C362.508 51.9076 361.769 54.3101 361.769 57.5581C361.769 60.8208 362.538 63.2827 364.061 64.9734C365.584 66.6641 367.344 67.5095 369.341 67.5095C371.352 67.5095 372.343 67.02 372.343 65.9967Z" fill="black"/>
<path d="M396.774 64.217H401.951L399.732 53.9838H399.436L396.774 64.217ZM409.641 78.2617C406.787 78.2617 405.234 77.8019 405.012 76.8824L403.385 70.5052H395.547L394.112 76.6303C393.92 77.6536 392.338 78.1579 389.38 78.1579C387.797 78.1579 386.629 78.0689 385.875 77.8909C385.121 77.7129 384.736 77.5646 384.736 77.4756L393.462 44.0027C393.462 43.7358 395.71 43.6023 400.22 43.6023C404.716 43.6023 406.979 43.7358 406.979 44.0027L415.512 77.5201C415.512 77.7574 414.758 77.9354 413.249 78.0689C411.741 78.1875 410.528 78.2617 409.641 78.2617Z" fill="black"/>
<path d="M453.283 78.2173C450.355 78.2173 448.891 77.891 448.891 77.2236L447.856 57.395L441.837 77.4758C441.703 77.8762 440.579 78.069 438.479 78.069C436.379 78.069 435.285 77.891 435.226 77.5203L429.014 57.2022L428.319 76.927C428.29 77.4164 427.669 77.7575 426.441 77.9355C425.228 78.1135 424.208 78.2025 423.409 78.2025C422.611 78.2025 421.827 78.158 421.073 78.0542C419.49 77.8169 418.721 77.4164 418.751 76.8232L419.89 44.6851C419.89 43.899 421.886 43.4986 425.909 43.4986C427.092 43.4986 428.541 43.5876 430.242 43.7655C431.957 43.9435 432.904 44.2995 433.096 44.8334L438.612 60.4056L443.448 44.774C443.744 43.9139 446.007 43.4838 450.251 43.4838C451.464 43.4838 452.928 43.5727 454.614 43.7507C456.3 43.9287 457.158 44.255 457.158 44.7147L458.592 77.1495C458.592 77.5054 457.957 77.7724 456.67 77.9355C455.398 78.1283 454.274 78.2173 453.283 78.2173Z" fill="black"/>
<path d="M479.519 57.291C480.14 57.291 480.451 58.4478 480.451 60.7466C480.451 61.4436 480.377 62.2593 480.229 63.1937C480.081 64.128 479.815 64.6026 479.415 64.6026H473.16V69.5412H482.225C482.787 69.5412 483.157 70.2679 483.364 71.7213C483.467 72.3442 483.512 73.0116 483.512 73.7235C483.512 74.4353 483.408 75.3549 483.216 76.4672C483.024 77.5943 482.684 78.143 482.225 78.143H465.366C464.124 78.143 463.488 77.6388 463.488 76.6155V44.8332C463.488 43.9731 463.857 43.543 464.626 43.543H482.284C482.979 43.543 483.32 44.9964 483.32 47.918C483.32 50.8397 482.979 52.2931 482.284 52.2931H473.16V57.291H479.519Z" fill="black"/>
<path d="M51.377 28.475L30.1991 47.7697L28.3062 79.7892L49.0995 67.2573L51.377 28.475Z" fill="black"/>
<path d="M57.6032 14.6527L40.5958 29.4686L31.9294 44.2103L50.9185 26.2503L57.6032 14.6527Z" fill="black"/>
<path d="M95.4039 82.0138L52.8559 68.0284L55.2813 30.0766L95.6849 45.4858L95.4039 82.0138ZM53.4771 27.6147L50.8298 69.1704L97.4004 84.4757L97.711 44.4921L53.4771 27.6147Z" fill="black"/>
<path d="M78.1599 34.7335L79.6092 29.0237L96.5722 42.2972L78.1599 34.7335Z" fill="black"/>
<path d="M88.5123 97.334C88.0538 97.334 87.6841 96.9632 87.6841 96.5035C87.6841 96.0437 88.0538 95.6729 88.5123 95.6729C88.9707 95.6729 89.3405 96.0437 89.3405 96.5035C89.3405 96.9632 88.9707 97.334 88.5123 97.334ZM87.6249 94.9907C86.4714 94.9907 85.5249 95.9251 85.5249 97.0967C85.5249 98.2535 86.4566 99.2026 87.6249 99.2026C88.7785 99.2026 89.725 98.2683 89.725 97.0967C89.7102 95.9251 88.7785 94.9907 87.6249 94.9907Z" fill="black"/>
<path d="M65.7815 37.5811C63.3117 37.5811 61.3152 40.651 61.3152 44.4328C61.3152 47.31 62.4687 49.7867 64.1103 50.7952C63.711 50.1575 63.4744 49.2973 63.4744 48.3482C63.4744 46.3905 64.5096 44.8036 65.7815 44.8036C67.0533 44.8036 68.0886 46.3905 68.0886 48.3482C68.0886 49.2973 67.8371 50.1575 67.4526 50.7952C69.0942 49.7867 70.2477 47.31 70.2477 44.4328C70.2477 40.651 68.2512 37.5811 65.7815 37.5811Z" fill="black"/>
<path d="M60.2061 44.507C60.2061 40.829 61.966 37.7739 64.273 37.24C63.9625 37.151 63.6519 37.0917 63.3265 37.0917C60.6793 37.0917 58.5349 40.3841 58.5349 44.4477C58.5349 48.5113 60.6793 51.8037 63.3265 51.8037C63.578 51.8037 63.8146 51.7741 64.0512 51.7148C61.8624 51.0474 60.2061 48.0664 60.2061 44.507Z" fill="black"/>
<path d="M93.3187 52.664L90.287 51.5961L90.3017 48.6003L86.9594 47.5474V50.5728L83.8833 49.6385V52.7678L86.9446 53.7021L86.9151 57.4839L90.2574 58.5073L90.2722 54.7106L93.2891 55.6301L93.3187 52.664Z" fill="black"/>
<path d="M57.13 65.0475C57.13 65.0475 57.1448 63.4903 59.3335 62.3631C60.7533 61.6364 61.0491 61.5771 61.0491 61.5771L61.8033 62.289C61.8033 62.289 59.1709 62.7932 57.13 65.0475ZM91.7067 69.5857C91.4109 69.4967 91.1299 69.6895 91.0412 70.0009C89.9616 74.2425 81.9459 73.0116 72.3775 67.9988C65.9294 64.6174 61.1674 60.6576 59.023 57.1872C58.8455 56.9054 58.4462 57.1427 58.5645 57.4542C58.9786 58.5961 59.7181 59.7974 60.8272 61.0432C60.1174 61.2953 58.3131 62.0517 57.13 63.5644C55.8285 65.2255 57.0856 67.8653 59.5258 67.6132C61.5075 67.4056 63.6371 65.4479 65.3231 64.9437C67.0238 66.145 69.0647 67.3907 71.4901 68.6513C82.5079 74.4205 91.4405 75.5625 92.0764 70.1937C92.106 69.9268 91.9581 69.6598 91.7067 69.5857Z" fill="black"/>
<path d="M68.4288 84.1792C67.6449 83.1114 62.735 80.0859 54.7046 84.9059C59.9103 79.9969 66.6393 80.0118 69.5231 82.1474C70.1739 82.622 70.3809 83.2004 70.3957 83.6898C70.4549 84.8021 69.0943 85.0839 68.4288 84.1792ZM66.802 90.6305L61.5667 97.2895L55.2074 88.139L55.2222 88.1093C55.7989 86.1368 57.3518 84.6093 59.3335 84.0902C60.7976 83.7046 62.661 83.4821 64.7907 83.8084C67.6449 84.2385 67.7928 86.0182 67.7928 86.0182L66.802 90.6305ZM81.1029 92.1433C79.3726 90.8975 69.0351 89.6665 69.0351 89.6665C74.7585 90.0521 79.6832 90.0373 81.9459 90.3636L96.7201 85.9144L49.4249 70.7722L29.4597 80.783L38.9986 83.9716C39.043 83.9716 39.0874 83.9716 39.1169 83.9567L39.3092 83.9419C44.5297 83.6749 48.9664 87.7089 49.2326 92.9441L49.6467 101.22L43.9086 101.501C43.5536 104.038 42.9621 109.095 45.7572 110.815C47.6206 111.957 52.3087 114.256 54.3644 115.25L54.3792 115.22C54.7637 114.36 55.7842 113.959 56.6419 114.345L56.6715 114.36C57.4997 114.73 57.8842 115.68 57.5884 116.51C57.825 116.51 58.106 116.451 58.4018 116.288C59.1856 115.828 60.1025 114.538 61.9068 114.345C63.0751 112.565 65.3674 109.169 66.0034 108.887C66.24 108.783 67.5266 108.62 69.3013 108.413L70.8246 104.957C71.4901 103.4 72.0521 102.139 72.4218 101.338L72.8802 100.315L73.25 105.906L77.4648 105.847L84.1199 99.0099C83.9424 97.8383 83.7206 96.8298 83.4544 95.9696C83.0551 94.887 82.2861 92.9886 81.1029 92.1433Z" fill="black"/>
<path d="M89.6361 133.803C89.6361 133.788 89.6361 133.788 89.6361 133.803C89.1629 132.957 88.2755 132.468 87.329 132.483C86.3825 132.483 85.1994 132.542 84.4304 132.676H84.3268C79.3134 133.298 79.1803 136.042 78.6183 136.68C78.2042 137.154 77.2133 137.273 76.6661 137.288C77.5239 140.313 77.0654 142.508 75.9858 144.214C75.9858 144.214 80.6296 146.928 82.9958 147.669C83.1141 147.699 83.2472 147.714 83.3951 147.699C83.3656 147.714 83.336 147.744 83.3212 147.758C91.958 146.794 91.2185 136.635 89.6361 133.803Z" fill="black"/>
<path d="M47.2806 134.04C47.1771 134.04 47.0883 134.04 46.9996 134.04C46.4968 134.085 46.1714 134.366 45.9348 134.737C45.9052 134.782 45.8904 134.826 45.8609 134.871C45.8609 134.871 45.8609 134.885 45.8461 134.885C45.8313 134.93 45.8017 134.974 45.7869 135.019C45.7869 135.034 45.7721 135.049 45.7721 135.049C45.7573 135.093 45.7425 135.138 45.7278 135.167C45.7278 135.182 45.713 135.197 45.713 135.212C45.6982 135.256 45.6834 135.286 45.6686 135.33C45.6686 135.345 45.6538 135.375 45.6538 135.39C45.639 135.419 45.639 135.464 45.6242 135.493C45.6242 135.523 45.6094 135.538 45.6094 135.568C45.5947 135.597 45.5947 135.627 45.5799 135.671C45.5799 135.701 45.5651 135.731 45.5651 135.76C45.5651 135.79 45.5503 135.805 45.5503 135.835C45.5355 135.894 45.5207 135.953 45.5207 136.013C45.4024 136.665 45.3876 137.303 45.4024 137.97C45.4024 138.059 45.4024 138.163 45.4172 138.252C45.4172 138.445 45.432 138.638 45.4468 138.83C45.4468 138.934 45.4616 139.023 45.4616 139.127C45.4763 139.335 45.4763 139.527 45.4911 139.735C45.5059 140.15 45.5059 140.58 45.4911 141.025C45.4763 141.47 45.432 141.945 45.3728 142.449C45.358 142.568 45.3432 142.701 45.3137 142.82C45.1066 144.08 44.6629 145.504 43.8348 147.18C43.8495 147.18 43.8643 147.18 43.8791 147.18C43.8643 147.21 43.8643 147.225 43.8495 147.239C43.7017 147.521 43.6573 147.773 43.6869 147.981H48.9665C52.442 144.095 49.6321 134.085 47.2806 134.04Z" fill="black"/>
<path d="M51.1699 147.002C53.0481 146.29 55.6361 145.489 57.1446 145.015C57.1742 144.807 56.0502 136.71 49.6614 134.648C51.229 136.724 53.2255 142.953 51.1699 147.002Z" fill="black"/>
<path d="M48.2567 100.048L31.8409 100.864L31.4859 93.745C31.2641 89.2365 34.7247 85.4101 39.2058 85.1877L39.3685 85.1728C43.8643 84.9504 47.6799 88.4208 47.9017 92.9145L48.2567 100.048Z" fill="black"/>
<path d="M76.7993 125.171C77.8936 124 86.8262 112.98 86.9741 112.743C82.6409 112.921 70.8097 113.366 70.0703 113.663C69.4787 113.9 67.0089 116.347 65.8258 117.963C65.885 117.978 65.9293 118.008 65.9737 118.038C66.0033 118.052 66.0181 118.067 66.0476 118.082C66.092 118.112 66.1364 118.141 66.1807 118.171C66.1955 118.186 66.2251 118.201 66.2399 118.216C66.2843 118.245 66.3286 118.29 66.3582 118.334C66.373 118.349 66.3878 118.364 66.4026 118.379C67.1125 119.18 67.1716 120.796 66.1068 122.487C64.6279 124.845 60.8715 126.921 57.3961 125.987C55.1038 125.364 54.527 123.985 54.3939 123.125C53.9207 123.466 53.2847 123.54 52.708 123.288L52.6784 123.273C51.9241 122.932 51.5248 122.116 51.7023 121.33C49.9128 120.648 42.9472 117.919 39.1316 115.561C34.7393 112.832 34.8576 106.499 34.8576 106.499L34.6801 101.991L30.554 102.198L30.2139 95.3021C23.2778 109.362 22.9968 124.37 22.9968 124.37C24.0321 126.061 34.6506 130.94 42.6958 130.258C34.7689 130.926 28.454 129.873 24.4018 128.642C24.1652 130.139 24.0025 131.623 24.0468 132.616C24.1504 135.004 25.2152 142.538 32.7132 145.46C32.7576 145.474 32.8019 145.489 32.8611 145.504C32.9942 145.549 33.1569 145.593 33.3048 145.638C34.0886 145.875 34.9463 146.082 35.8633 146.216C38.9985 146.691 41.2317 146.972 42.7993 147.121C42.8141 147.091 42.8141 147.061 42.8289 147.032C45.5501 141.574 44.0416 138.741 44.5592 135.775C44.6775 135.123 45.062 134.01 45.8606 133.417C46.1268 133.209 46.467 133.046 46.8959 133.002C46.8663 132.987 46.8367 132.987 46.8367 132.987C46.8367 132.987 49.8833 132.765 52.6784 134.618C52.7227 134.633 52.7671 134.648 52.7671 134.648C52.7671 134.648 56.1834 136.754 57.7214 141.366C57.7954 141.574 57.8545 141.782 57.9285 141.974C58.2095 142.034 64.1546 143.087 68.0294 143.769L71.0168 144.169C71.9041 143.606 72.5696 141.129 72.4809 139.572C72.3625 138.919 72.1999 138.519 72.1999 138.519L55.6362 132.097C55.6362 132.097 50.2973 129.976 47.1325 130.584C46.0233 130.792 45.1951 131.311 44.6036 131.875C45.1951 131 46.2156 129.991 47.9015 129.665C51.0812 129.057 56.4052 131.178 56.4052 131.178L63.8737 134.04C65.3969 133.031 74.0633 128.3 77.2429 128.078C79.7127 127.9 82.0641 128.953 83.3952 130.851C82.0198 129.546 80.0824 128.864 78.0415 129.012C75.1725 129.22 68.5026 133.417 66.1364 134.959L71.9189 137.199C71.9041 136.695 72.0076 136.057 72.5844 135.612C73.664 134.767 74.6844 134.826 75.6457 135.612C75.838 135.775 76.0007 135.953 76.119 136.176C76.6662 136.146 77.6127 136.012 77.9972 135.568C78.5444 134.945 78.6775 132.379 83.1881 131.637C83.7353 131.504 86.0128 131.252 86.9445 131.252C86.7818 131 86.6044 130.733 86.4121 130.481C83.6466 126.995 80.6148 125.586 76.7993 125.171Z" fill="black"/>
<path d="M87.6841 111.082C87.6693 111.052 87.6693 111.023 87.6545 110.978C87.6545 110.963 87.6397 110.949 87.6249 110.919C87.6101 110.889 87.5953 110.86 87.5805 110.83C87.5657 110.815 87.5657 110.785 87.5509 110.771C87.5362 110.741 87.5214 110.711 87.4918 110.682C87.477 110.667 87.477 110.652 87.4622 110.637C87.4326 110.593 87.4031 110.563 87.3735 110.519C87.3587 110.504 87.3439 110.489 87.3439 110.474C87.3143 110.444 87.2847 110.4 87.2404 110.37C87.2256 110.355 87.2256 110.355 87.2108 110.341C87.1664 110.296 87.1221 110.252 87.0629 110.207C87.0481 110.192 87.0333 110.177 87.0185 110.177C86.9594 110.133 86.9002 110.088 86.8411 110.044C86.8263 110.044 86.8263 110.029 86.8115 110.029C86.7523 109.985 86.6932 109.955 86.6192 109.91C86.6045 109.896 86.5897 109.896 86.5749 109.881C86.5009 109.836 86.427 109.792 86.3383 109.747C86.3235 109.762 86.3087 109.747 86.2939 109.747C86.2051 109.703 86.1164 109.658 86.0129 109.614C84.2678 108.843 83.0255 108.724 82.5227 108.665C82.4339 108.65 81.9607 108.68 81.2065 108.709L80.3339 109.97C80.26 110.103 80.1564 110.207 80.0233 110.311C79.7423 110.504 79.3283 110.622 78.7663 110.697C78.4853 110.726 78.1747 110.756 77.8198 110.771C76.9768 110.8 76.2226 110.726 75.7493 110.578C75.9712 110.593 76.2078 110.593 76.4444 110.578C76.681 110.608 76.962 110.608 77.243 110.593C78.0564 110.563 78.7367 110.385 78.929 110.177L79.0473 109.999L79.1804 109.807L79.417 109.48L79.9346 108.783H79.9198L86.5009 99.6921C86.1608 99.5883 85.8502 99.3807 85.6136 99.1285C83.1142 101.679 78.2339 106.692 76.2817 109.021C76.1782 109.035 76.0747 109.035 75.9711 109.035C75.9268 109.035 75.8824 109.035 75.838 109.05C75.6458 109.065 75.4683 109.08 75.2761 109.095C75.2317 109.095 75.1725 109.11 75.1282 109.11C74.6697 109.139 74.2113 109.169 73.7528 109.213C73.7084 109.213 73.6641 109.213 73.6345 109.228C73.4274 109.243 73.2204 109.258 73.0281 109.273C72.9986 109.273 72.969 109.273 72.9394 109.273C72.7176 109.288 72.4809 109.302 72.2591 109.317C72.2295 109.317 72.2 109.317 72.1852 109.317C71.9781 109.332 71.7859 109.347 71.5936 109.362C71.564 109.362 71.5197 109.362 71.4901 109.377C71.0612 109.406 70.6323 109.451 70.233 109.48C70.2034 109.48 70.1591 109.48 70.1295 109.495C69.9668 109.51 69.7893 109.525 69.6415 109.54C69.6119 109.54 69.5823 109.54 69.5379 109.555C69.3457 109.569 69.1682 109.584 68.9907 109.599C67.6449 109.733 66.6984 109.836 66.5062 109.925C65.7667 110.237 62.0843 115.086 60.9751 116.54C60.9159 116.703 60.8716 116.881 60.8272 117.059C60.5462 118.127 60.8124 118.586 61.3892 118.72C61.4483 118.735 61.5075 118.75 61.5814 118.75C61.5962 118.75 61.611 118.75 61.6258 118.75C61.6702 118.75 61.7293 118.764 61.7885 118.764C61.8033 118.764 61.8329 118.764 61.8476 118.764C61.9068 118.764 61.9512 118.764 62.0103 118.764C62.0251 118.764 62.0547 118.764 62.0695 118.764C62.1434 118.764 62.2174 118.75 62.3061 118.75C62.38 118.735 62.4392 118.735 62.4984 118.72C62.5131 118.72 62.5427 118.705 62.5575 118.705C62.6019 118.69 62.6462 118.69 62.6906 118.675C62.7054 118.675 62.735 118.661 62.7498 118.661C62.7941 118.646 62.8237 118.631 62.8681 118.616C62.8829 118.616 62.8977 118.601 62.9125 118.601C62.9568 118.586 62.9864 118.572 63.0308 118.557C63.0456 118.557 63.0456 118.542 63.0603 118.542C63.3857 118.394 63.6667 118.201 64.0364 118.067C64.0956 118.053 64.1399 118.023 64.1991 118.008C64.1991 118.008 64.1991 118.008 64.2139 118.008C64.273 117.993 64.3322 117.978 64.3914 117.964H64.4061C64.4653 117.949 64.5245 117.934 64.5984 117.934H64.6132C64.6871 117.919 64.7463 117.919 64.8202 117.904H64.835C64.909 117.904 64.9829 117.889 65.0716 117.889C65.8998 116.614 67.571 114.078 68.5323 113.04L66.7132 110.459L69.8041 112.461C72.7619 112.061 83.5727 111.305 87.6841 111.082Z" fill="black"/>
<path d="M4.8508 5.47253L118.682 5.68016L118.283 145.934L4.54023 145.83L4.8508 5.47253ZM123.518 0L0 4.25642L3.81556 146.78L120.205 152.015L120.22 151.6L120.309 151.614L123.518 0Z" fill="black"/>
<path d="M383.568 102.124H378.125C377.963 101.056 377.549 100.3 376.913 99.8552C376.262 99.4102 375.315 99.1878 374.088 99.1878C373.038 99.1878 372.225 99.3806 371.648 99.7513C371.071 100.122 370.79 100.641 370.79 101.294C370.79 102.065 371.115 102.599 371.781 102.91C372.446 103.207 373.629 103.548 375.33 103.904C375.626 103.963 375.848 103.993 375.996 104.023C376.987 104.215 377.77 104.393 378.377 104.542C378.968 104.69 379.693 104.942 380.551 105.283C381.409 105.624 382.059 106.01 382.532 106.44C383.006 106.87 383.42 107.434 383.775 108.16C384.13 108.872 384.307 109.703 384.307 110.637C384.307 112.862 383.449 114.627 381.704 115.932C379.974 117.222 377.593 117.874 374.561 117.874C371.677 117.874 369.296 117.252 367.418 116.021C365.54 114.775 364.593 112.877 364.579 110.326H370.154C370.346 112.699 371.855 113.885 374.694 113.885C375.877 113.885 376.824 113.648 377.519 113.158C378.214 112.669 378.569 112.031 378.569 111.23C378.569 110.429 378.258 109.866 377.623 109.54C376.987 109.213 375.818 108.843 374.118 108.457C373.984 108.427 373.866 108.398 373.792 108.368C373.6 108.309 373.171 108.22 372.506 108.071C371.84 107.938 371.382 107.834 371.115 107.76C370.849 107.686 370.42 107.567 369.829 107.404C369.237 107.241 368.808 107.078 368.527 106.929C368.246 106.781 367.891 106.588 367.433 106.351C366.974 106.114 366.634 105.862 366.427 105.595C366.205 105.313 365.969 105.001 365.703 104.616C365.436 104.245 365.259 103.83 365.17 103.355C365.067 102.881 365.022 102.376 365.022 101.828C365.022 99.7365 365.836 98.12 367.462 96.9928C369.089 95.8657 371.382 95.3021 374.354 95.3021C377.016 95.3021 379.205 95.8509 380.92 96.9483C382.592 98.0606 383.494 99.781 383.568 102.124Z" fill="black"/>
<path d="M399.466 95.9251V99.8849H395.133V109.925C395.133 110.563 395.148 111.023 395.177 111.305C395.207 111.601 395.295 111.883 395.473 112.194C395.636 112.491 395.887 112.699 396.242 112.788C396.582 112.877 397.07 112.936 397.706 112.936C398.416 112.936 399.008 112.906 399.481 112.847V117.311C398.046 117.415 396.863 117.474 395.931 117.474C393.373 117.474 391.628 117.029 390.711 116.124C389.794 115.235 389.336 113.499 389.336 110.949V99.8849H385.786V95.9251H389.336V89.4885H395.148V95.9251H399.466V95.9251Z" fill="black"/>
<path d="M422.241 95.925V117.237H416.666V114.226C415.009 116.644 412.702 117.86 409.729 117.86C407.393 117.86 405.574 117.222 404.258 115.947C402.956 114.671 402.305 112.773 402.305 110.266V95.9399H408.206V108.131C408.206 108.932 408.236 109.569 408.31 110.059C408.384 110.533 408.517 111.038 408.739 111.527C408.96 112.016 409.33 112.387 409.833 112.624C410.351 112.862 411.001 112.98 411.8 112.98C414.876 112.98 416.429 110.978 416.429 106.944V95.9547H422.241V95.925Z" fill="black"/>
<path d="M447.501 117.252H441.97V114.523C440.565 116.733 438.42 117.83 435.536 117.83C432.593 117.83 430.242 116.807 428.497 114.76C426.752 112.713 425.879 109.97 425.879 106.514C425.879 103.148 426.722 100.448 428.423 98.4166C430.109 96.3848 432.386 95.3615 435.211 95.3615C436.527 95.3615 437.784 95.6284 438.953 96.192C440.121 96.7407 441.038 97.5416 441.703 98.5797V87.8423H447.53V117.252H447.501ZM441.896 106.544C441.896 104.482 441.452 102.866 440.55 101.709C439.648 100.552 438.405 99.9738 436.808 99.9738C435.211 99.9738 433.969 100.552 433.096 101.709C432.209 102.866 431.78 104.468 431.78 106.499C431.78 108.561 432.224 110.177 433.126 111.349C434.013 112.521 435.255 113.099 436.823 113.099C438.45 113.099 439.692 112.521 440.579 111.379C441.452 110.251 441.896 108.635 441.896 106.544Z" fill="black"/>
<path d="M457.986 87.8423V92.7957H452.13V87.8423H457.986V87.8423ZM457.986 95.925V117.237H452.13V95.925H457.986Z" fill="black"/>
<path d="M473.1 95.317C476.369 95.317 479.016 96.3552 480.998 98.4166C482.994 100.478 483.985 103.207 483.985 106.588C483.985 109.999 482.979 112.743 480.998 114.805C479.001 116.866 476.339 117.904 473.012 117.904C469.684 117.904 467.007 116.866 465.011 114.805C463 112.743 461.994 109.999 461.994 106.588C461.994 103.207 463.014 100.478 465.04 98.4166C467.081 96.3403 469.758 95.317 473.1 95.317ZM472.923 99.7662C471.355 99.7662 470.113 100.374 469.211 101.59C468.309 102.807 467.85 104.468 467.85 106.588C467.85 108.768 468.309 110.459 469.211 111.66C470.113 112.877 471.385 113.485 473.012 113.485C474.638 113.485 475.896 112.877 476.783 111.646C477.685 110.415 478.129 108.724 478.129 106.544C478.129 104.423 477.67 102.762 476.738 101.561C475.822 100.374 474.55 99.7662 472.923 99.7662Z" fill="black"/>
</svg>
