<svg width="346" height="346" viewBox="0 0 346 346" fill="none" xmlns="http://www.w3.org/2000/svg">
<g clip-path="url(#clip0)">
<path d="M271.202 300.81H44.0605C36.3857 300.81 30.1509 294.592 30.1509 286.905V66.0685C30.1509 58.3961 36.3709 52.1632 44.0605 52.1632H271.202C278.877 52.1632 285.111 58.3812 285.111 66.0685V286.92C285.111 294.592 278.891 300.81 271.202 300.81Z" fill="#818181"/>
<path d="M266.466 289.562H42.576C35.7177 289.562 30.1509 283.996 30.1509 277.14V53.3206C30.1509 46.4645 35.7177 40.8994 42.576 40.8994H266.466C273.325 40.8994 278.891 46.4645 278.891 53.3206V277.14C278.891 283.996 273.325 289.562 266.466 289.562Z" fill="white"/>
<path d="M303.311 259.51L87.2738 334.453C82.0336 336.264 76.3183 333.503 74.5072 328.265L-0.444492 112.296C-2.25557 107.057 0.50558 101.344 5.74582 99.5332L221.783 24.5902C227.023 22.7797 232.739 25.54 234.55 30.7786L309.516 246.748C311.312 251.972 308.551 257.7 303.311 259.51Z" fill="#818181"/>
<path d="M302.42 245.531L88.1644 319.85C82.4343 321.839 76.1846 318.812 74.1954 313.083L-0.147676 98.8949C-2.13689 93.1666 0.891464 86.9189 6.62158 84.9303L220.877 10.6107C226.608 8.62209 232.857 11.6495 234.847 17.3778L309.19 231.566C311.179 237.294 308.15 243.542 302.42 245.531Z" fill="white"/>
<path d="M55.283 153.165L224.96 94.3093" stroke="#E5E5E5" stroke-width="2" stroke-miterlimit="10"/>
<path d="M224.96 236.152L166.085 66.5433" stroke="#E5E5E5" stroke-width="2" stroke-miterlimit="10"/>
<path d="M140.122 264.333L81.2468 94.7101" stroke="#E5E5E5" stroke-width="2" stroke-miterlimit="10"/>
<path d="M84.0969 236.152L253.759 177.296" stroke="#E5E5E5" stroke-width="2" stroke-miterlimit="10"/>
<path d="M261.315 223.211L106.617 276.873C102.475 278.313 97.962 276.116 96.5369 271.991L42.8579 117.341C41.4179 113.201 43.6149 108.689 47.7418 107.265L202.44 53.6027C206.582 52.1632 211.095 54.3596 212.52 58.4851L266.199 213.12C267.624 217.26 265.442 221.772 261.315 223.211Z" stroke="#A3A3A3" stroke-width="5" stroke-miterlimit="10"/>
<path d="M69.6973 194.659L239.359 135.802" stroke="#A3A3A3" stroke-width="5" stroke-miterlimit="10"/>
<path d="M183.875 249.623L125 80" stroke="#A3A3A3" stroke-width="5" stroke-miterlimit="10"/>
<path d="M185.208 131.388L167.847 189.239L295.131 227.431L312.491 169.581L185.208 131.388Z" fill="#FFA91F"/>
<path opacity="0.05" d="M179.417 150.663L173.629 169.951L300.912 208.143L306.7 188.855L179.417 150.663Z" fill="black"/>
<path d="M183.387 180.583L177.183 173.815C175.586 172.063 176.424 169.242 178.725 168.675L187.618 166.442C189.923 165.861 190.761 163.04 189.16 161.302L182.957 154.534C181.359 152.782 182.198 149.961 184.499 149.394L193.392 147.161C195.697 146.58 196.535 143.759 194.934 142.021L185.193 131.392C178.585 129.409 171.609 128.971 164.806 130.115L126.021 136.652C118.597 137.907 115.824 147.132 121.332 152.27L150.114 179.08C155.159 183.788 161.216 187.256 167.825 189.239L181.812 185.731C184.131 185.153 184.984 182.336 183.387 180.583Z" fill="#F5CAC5"/>
<path d="M149.038 132.773L126.035 136.655C118.611 137.911 115.838 147.136 121.346 152.274L138.411 168.167L149.038 132.773Z" fill="#555555"/>
<path d="M275.525 158.479L258.164 216.329L281.497 223.33L298.857 165.48L275.525 158.479Z" fill="#555555"/>
<path d="M281.497 223.34L298.865 165.493L330.112 174.874C338.289 177.321 342.937 185.946 340.476 194.116L332.006 222.366C329.559 230.54 320.932 235.186 312.759 232.724L281.497 223.34Z" fill="#ED718B"/>
<path opacity="0.1" d="M331.994 222.348L335.221 211.599C332.774 219.773 324.148 224.418 315.974 221.957L261.397 205.58L298.371 216.674L171.084 178.482C164.475 176.499 158.418 173.03 153.373 168.323L124.576 141.51C123.513 140.525 122.762 139.385 122.287 138.174C117.852 141.299 116.887 148.117 121.349 152.259L150.132 179.069C155.177 183.777 161.234 187.245 167.843 189.228L258.155 216.326L295.129 227.42L281.486 223.322L312.733 232.703C320.921 235.168 329.548 230.522 331.994 222.348Z" fill="black"/>
<path d="M61.265 129.359L58.0592 115.301L72.5015 110.332L73.8361 114.21L63.1244 117.896L64.5973 124.577C65.5951 123.435 66.8758 122.595 68.4395 122.057C71.0004 121.176 73.2706 121.31 75.25 122.461C77.2417 123.607 78.7142 125.565 79.6675 128.335C80.6081 131.068 80.57 133.519 79.5533 135.686C78.5324 137.842 76.6491 139.392 73.9035 140.336C71.441 141.184 69.1578 141.192 67.0538 140.359C64.9579 139.511 63.4482 137.965 62.5248 135.721L66.8648 134.228C67.4863 135.474 68.2995 136.316 69.3043 136.755C70.3049 137.182 71.4209 137.184 72.6521 136.76C74.0311 136.285 74.9328 135.424 75.3572 134.177C75.7939 132.925 75.7199 131.449 75.1352 129.75C74.5717 128.113 73.7021 126.966 72.5263 126.31C71.3463 125.642 70.0114 125.565 68.5216 126.077C67.709 126.357 67.0577 126.705 66.5676 127.122C66.0732 127.526 65.6017 128.156 65.1529 129.013L61.265 129.359Z" fill="#555555"/>
<path d="M158.815 221.822L156.461 249.917L151.752 251.538L154.468 224.557L140.561 229.342L139.322 225.741L157.957 219.328L158.815 221.822Z" fill="#555555"/>
<path d="M200.317 96.9248L195.848 98.4628L188.418 76.8733L182.6 81.3952L181.298 77.6092L190.459 70.1396L191.032 69.9425L200.317 96.9248Z" fill="#555555"/>
</g>
<defs>
<clipPath id="clip0">
<rect width="346" height="346" fill="white"/>
</clipPath>
</defs>
</svg>
